<svg xmlns="http://www.w3.org/2000/svg" viewBox="0 0 1068 299"><path fill="#fff" d="M1044.03 149.86a129.21 129.21 0 0 1-129.21 129.21 129.21 129.21 0 0 1-129.21-129.21A129.21 129.21 0 0 1 914.82 20.65a129.21 129.21 0 0 1 129.21 129.21ZM914.716 90.38a59.6 56.81-90.1 0 0-56.706 59.7 59.6 56.81-90.1 0 0 56.914 59.5 59.6 56.81-90.1 0 0 56.706-59.7 59.6 56.81-90.1 0 0-56.914-59.5ZM582.91 149.89a129.09 129.09 0 0 1-129.09 129.09 129.09 129.09 0 0 1-129.09-129.09A129.09 129.09 0 0 1 453.82 20.8a129.09 129.09 0 0 1 129.09 129.09ZM453.904 90.41a59.61 56.89-89.9 0 0-56.994 59.51 59.61 56.89-89.9 0 0 56.786 59.71 59.61 56.89-89.9 0 0 56.994-59.51 59.61 56.89-89.9 0 0-56.786-59.71ZM95.6 156.52q.05 44.65-.11 106.46-.02 7.53-5.75 10.46-3.08 1.58-9.37 1.58-26.5.03-44.11-.05-8.53-.03-11.81-5.91-1.46-2.62-1.45-11.28.08-150.45.01-216.84-.01-7.25 1.52-10.09c2.67-4.95 7.62-5.79 13.23-5.8q36.39-.1 42.72.14c8.79.34 12.98 4.85 18.27 12.61q48.13 70.54 61.27 89.57c1.12 1.62 3.07.44 3.97-.88q8.74-12.75 60.44-88.58c2.86-4.2 4.23-6.65 7.49-8.84q5.96-3.99 13.33-4 16.83-.03 42.03-.04 9.34 0 12.5 7.28a2.64 2.5 33.5 0 1 .21.91c.07 1.92.39 3.77.39 5.37q-.09 133.78.08 218.65.02 9.59-1.22 11.7c-3.1 5.29-7.16 6-13.78 6.03q-24.45.12-40.6.09c-11.68-.03-16.89-2.8-16.88-14.59q.04-33.75.01-103.71a.82.82 0 0 0-1.31-.66q-.79.59-1.53 1.81-11.85 19.32-54.61 88.08-4.87 7.82-13.93 3.93-1.96-.83-4.83-5.46-26.47-42.56-50.9-82.03c-1.34-2.18-2.39-4.3-4.13-6.34a.66.65-65.3 0 0-1.15.43ZM682.15 25q81.79-.1 85.54-.07 6.4.05 8.36 1.36 3.64 2.43 4.94 7.21a3.79 3.71-53.2 0 1 .13.98q.06 17.14.1 43.27 0 5.12-.47 6.62-1.84 5.79-8.1 7.42a4.12 4.04-51.9 0 1-.85.11l-48.51.05a2.23 2.13 36.9 0 0-.51.06q-4.48 1.11-4.49 5.48-.09 36.46.16 165.75.01 8.92-9.02 11.51a3.86 3.47 33 0 1-.87.14q-2.91.1-26.11.13t-26.11-.07a3.86 3.47-33.1 0 1-.87-.13q-9.04-2.57-9.05-11.49-.06-129.29-.24-165.75-.02-4.37-4.5-5.47a2.23 2.13-37.1 0 0-.51-.06l-48.51.07a4.12 4.04 51.7 0 1-.85-.11q-6.27-1.62-8.12-7.4-.47-1.5-.49-6.62-.02-26.13 0-43.27a3.79 3.71 53 0 1 .13-.98q1.29-4.78 4.92-7.22 1.96-1.32 8.35-1.38 3.76-.04 85.55-.14Z"/></svg>
